HIERARCHY
ROOT joint_Root
{
	OFFSET 0.0 0.0 0.0
	CHANNELS 6 Xposition Yposition Zposition Zrotation Xrotation Yrotation 
	JOINT Hips
	{
		OFFSET -0.726466 93.3139 -2.00062
		CHANNELS 6 Xposition Yposition Zposition Zrotation Xrotation Yrotation 
		JOINT Spine
		{
			OFFSET 15.7357 0.0 0.0
			CHANNELS 6 Xposition Yposition Zposition Zrotation Xrotation Yrotation 
			JOINT Chest
			{
				OFFSET 8.98455 -0.406207 0.0
				CHANNELS 6 Xposition Yposition Zposition Zrotation Xrotation Yrotation 
				JOINT Neck
				{
					OFFSET 16.3773 0.0 0.0
					CHANNELS 6 Xposition Yposition Zposition Zrotation Xrotation Yrotation 
					JOINT Head
					{
						OFFSET 6.45672 0.0 0.0
						CHANNELS 6 Xposition Yposition Zposition Zrotation Xrotation Yrotation 
						End Site
						{
							OFFSET 0.0 0.0 0.0
						}
					}
				}
				JOINT Shoulder_L
				{
					OFFSET 12.9942 -0.242716 4.98039
					CHANNELS 6 Xposition Yposition Zposition Zrotation Xrotation Yrotation 
					JOINT UpperArm_L
					{
						OFFSET 5.34809 0.0 0.0
						CHANNELS 6 Xposition Yposition Zposition Zrotation Xrotation Yrotation 
						JOINT LowerArm_L
						{
							OFFSET 24.3286 1.87007e-05 0.0
							CHANNELS 6 Xposition Yposition Zposition Zrotation Xrotation Yrotation 
							JOINT Hand_L
							{
								OFFSET 22.2916 0.0 0.0
								CHANNELS 6 Xposition Yposition Zposition Zrotation Xrotation Yrotation 
								End Site
								{
									OFFSET 0.0 0.0 0.0
								}
							}
						}
					}
				}
				JOINT Shoulder_R
				{
					OFFSET 12.9945 -0.242716 -4.98039
					CHANNELS 6 Xposition Yposition Zposition Zrotation Xrotation Yrotation 
					JOINT UpperArm_R
					{
						OFFSET -5.34813 0.0 0.0
						CHANNELS 6 Xposition Yposition Zposition Zrotation Xrotation Yrotation 
						JOINT LowerArm_R
						{
							OFFSET -24.3289 0.000322201 0.0
							CHANNELS 6 Xposition Yposition Zposition Zrotation Xrotation Yrotation 
							JOINT Hand_R
							{
								OFFSET -22.2915 -0.000108084 0.0
								CHANNELS 6 Xposition Yposition Zposition Zrotation Xrotation Yrotation 
								End Site
								{
									OFFSET 0.0 0.0 0.0
								}
							}
						}
					}
				}
			}
		}
		JOINT UpperLeg_L
		{
			OFFSET -2.19248 -6.46944 0.0
			CHANNELS 6 Xposition Yposition Zposition Zrotation Xrotation Yrotation 
			JOINT LowerLeg_L
			{
				OFFSET 39.0811 0.0 -1.23785e-05
				CHANNELS 6 Xposition Yposition Zposition Zrotation Xrotation Yrotation 
				JOINT Foot_L
				{
					OFFSET 40.9854 0.0 -1.26872e-05
					CHANNELS 6 Xposition Yposition Zposition Zrotation Xrotation Yrotation 
					JOINT Toes_L
					{
						OFFSET 11.7543 0.0 0.0
						CHANNELS 6 Xposition Yposition Zposition Zrotation Xrotation Yrotation 
						End Site
						{
							OFFSET 0.0 0.0 0.0
						}
					}
				}
			}
		}
		JOINT UpperLeg_R
		{
			OFFSET -2.19251 6.46944 0.0
			CHANNELS 6 Xposition Yposition Zposition Zrotation Xrotation Yrotation 
			JOINT LowerLeg_R
			{
				OFFSET -39.0811 -0.00228153 -0.0401928
				CHANNELS 6 Xposition Yposition Zposition Zrotation Xrotation Yrotation 
				JOINT Foot_R
				{
					OFFSET -40.9854 0.0 0.0
					CHANNELS 6 Xposition Yposition Zposition Zrotation Xrotation Yrotation 
					JOINT Toes_R
					{
						OFFSET -11.7543 0.0 0.0
						CHANNELS 6 Xposition Yposition Zposition Zrotation Xrotation Yrotation 
						End Site
						{
							OFFSET 0.0 0.0 0.0
						}
					}
				}
			}
		}
	}
}
MOTION
Frames:	4
Frame Time:	0.0333333
0.000000 0.000000 0.000000 0.000000 0.000000 -0.000000 -1.221290 92.307400 -2.055630 88.245200 -0.138287 5.330170 15.735700 0.000005 -0.000001 81.114300 86.005200 -80.623300 8.984550 -0.406207 -0.000000 0.133431 -1.266470 0.982820 16.377300 -0.000001 -0.000001 4.469740 -2.277310 0.700652 6.456720 -0.000001 -0.000000 6.907280 -2.389330 -0.919328 12.994200 -0.242716 4.980390 -88.148700 -6.241800 -73.443000 5.348090 -0.000007 -0.000001 -83.215100 -29.294500 -82.040600 24.328600 0.000019 0.000005 15.703000 -0.560500 -91.992900 22.291600 -0.000001 0.000005 23.782000 5.590130 -10.769200 12.994500 -0.242716 -4.980390 90.127700 -0.449185 -74.129300 -5.348130 -0.000001 -0.000004 -73.744500 -25.512800 -89.499000 -24.328900 0.000322 -0.000009 22.367300 0.559802 -88.640600 -22.291500 -0.000108 -0.000004 24.805200 5.377760 -2.228200 -2.192480 -6.469440 -0.000000 -175.334000 -6.215750 -2.324870 39.081100 -0.000007 -0.000012 -0.103843 0.242518 23.180000 40.985400 -0.000006 -0.000013 -0.530356 3.343950 -65.717900 11.754300 -0.000000 0.000003 -0.000041 -0.000475 -16.596000 -2.192510 6.469440 -0.000001 179.468000 15.832200 -178.981000 -39.081100 -0.002282 -0.040193 -0.031582 0.097262 19.741300 -40.985400 0.000008 0.000006 3.644010 6.411340 -65.853200 -11.754300 -0.000006 -0.000006 -0.006283 -0.073381 -19.559800
0.000000 0.000000 0.000000 0.000000 0.000000 -0.000000 -1.227560 92.306900 -2.086690 88.247700 -0.083157 5.275510 15.735700 0.000005 -0.000001 80.890800 86.004700 -80.402500 8.984550 -0.406207 -0.000000 0.129617 -1.297220 0.977625 16.377300 -0.000001 -0.000001 4.382040 -2.278070 0.723816 6.456720 -0.000001 -0.000000 6.879580 -2.304990 -0.968652 12.994200 -0.242716 4.980390 -88.138400 -6.257930 -73.397000 5.348090 -0.000007 -0.000001 -83.144700 -29.350200 -82.076600 24.328600 0.000019 0.000005 15.895800 -0.593959 -92.084800 22.291600 -0.000001 0.000005 23.706900 5.589990 -10.761100 12.994500 -0.242716 -4.980390 90.129400 -0.453078 -74.057200 -5.348130 -0.000001 -0.000004 -73.665800 -25.563900 -89.716600 -24.328900 0.000322 -0.000009 22.331300 0.657551 -88.400400 -22.291500 -0.000108 -0.000004 24.808600 5.376940 -2.202430 -2.192480 -6.469440 -0.000000 -175.339000 -6.229100 -2.423110 39.081100 -0.000007 -0.000012 -0.103341 0.241077 23.203100 40.985400 -0.000006 -0.000013 -0.513163 3.423720 -65.700800 11.754300 -0.000000 0.000003 -0.000047 -0.000533 -16.598300 -2.192510 6.469440 -0.000001 179.487000 15.836600 -179.062000 -39.081100 -0.002282 -0.040193 -0.032276 0.099072 19.764100 -40.985400 0.000008 0.000006 3.642070 6.345180 -65.850800 -11.754300 -0.000006 -0.000006 -0.006373 -0.074183 -19.592500
0.000000 0.000000 0.000000 0.000000 0.000000 -0.000000 -1.235220 92.316000 -2.124930 88.274700 0.007808 5.215870 15.735700 0.000005 -0.000001 80.780300 86.006200 -80.302500 8.984550 -0.406207 -0.000000 0.124232 -1.311290 0.956448 16.377300 -0.000001 -0.000001 4.313850 -2.281180 0.763100 6.456720 -0.000001 -0.000000 6.853850 -2.286260 -0.964179 12.994200 -0.242716 4.980390 -88.138000 -6.240780 -73.350000 5.348090 -0.000007 -0.000001 -83.115200 -29.322600 -82.141300 24.328600 0.000019 0.000005 15.804800 -0.617689 -92.181100 22.291600 -0.000001 0.000005 23.638000 5.588460 -10.675600 12.994500 -0.242716 -4.980390 90.134100 -0.466216 -73.950600 -5.348130 -0.000001 -0.000004 -73.561900 -25.720200 -89.846400 -24.328900 0.000322 -0.000009 22.456100 0.724200 -88.249200 -22.291500 -0.000108 -0.000004 24.844700 5.375220 -2.148890 -2.192480 -6.469440 -0.000000 -175.370000 -6.175450 -2.492330 39.081100 -0.000007 -0.000012 -0.103006 0.241039 23.139100 40.985400 -0.000006 -0.000013 -0.516003 3.460460 -65.633100 11.754300 -0.000000 0.000003 -0.000040 -0.000461 -16.595500 -2.192510 6.469440 -0.000001 179.490000 15.879200 -179.134000 -39.081100 -0.002282 -0.040193 -0.033708 0.103290 19.722900 -40.985400 0.000008 0.000006 3.554270 6.299630 -65.789500 -11.754300 -0.000006 -0.000006 -0.006265 -0.073225 -19.553400
0.000000 0.000000 0.000000 0.000000 0.000000 -0.000000 -1.243300 92.320900 -2.149460 88.266700 0.095338 5.156680 15.735700 0.000005 -0.000001 80.770100 86.006300 -80.293900 8.984550 -0.406207 -0.000000 0.123716 -1.312550 0.953220 16.377300 -0.000001 -0.000001 4.283460 -2.290300 0.789232 6.456720 -0.000001 -0.000000 6.818910 -2.307690 -0.950326 12.994200 -0.242716 4.980390 -88.136000 -6.231380 -73.309900 5.348090 -0.000007 -0.000001 -83.070900 -29.347400 -82.198900 24.328600 0.000019 0.000005 15.570400 -0.629555 -92.258200 22.291600 -0.000001 0.000005 23.576300 5.588090 -10.654900 12.994500 -0.242716 -4.980390 90.134700 -0.465329 -73.852900 -5.348130 -0.000001 -0.000004 -73.469700 -25.935700 -89.962700 -24.328900 0.000322 -0.000009 22.222600 0.768367 -88.120800 -22.291500 -0.000108 -0.000004 24.826900 5.376600 -2.191890 -2.192480 -6.469440 -0.000000 -175.376000 -6.143060 -2.588440 39.081100 -0.000007 -0.000012 -0.101827 0.238322 23.135500 40.985400 -0.000006 -0.000013 -0.505759 3.493190 -65.598700 11.754300 -0.000000 0.000003 -0.000040 -0.000470 -16.595900 -2.192510 6.469440 -0.000001 179.513000 15.959900 -179.184000 -39.081100 -0.002282 -0.040193 -0.033251 0.102261 19.679200 -40.985400 0.000008 0.000006 3.523980 6.285140 -65.753900 -11.754300 -0.000006 -0.000006 -0.006457 -0.074932 -19.623100
